<svg width="30" height="28" fill="none" xmlns="http://www.w3.org/2000/svg"><path fill-rule="evenodd" clip-rule="evenodd" d="M0 1.595C0 .885.574.31 1.284.309L28.69.284c.71-.001 1.286.574 1.286 1.283L30 25.977c0 .946-.765 1.714-1.711 1.715l-26.552.024a1.713 1.713 0 0 1-1.714-1.711L0 1.595Zm29.128 7.253L.863 8.874l.016 17.13c0 .473.384.856.857.856l26.552-.025a.857.857 0 0 0 .855-.857l-.015-17.13ZM8.566 2.658a1.07 1.07 0 1 1-2.141.002 1.07 1.07 0 0 1 2.14-.002Zm6.21 1.064a1.07 1.07 0 1 0-.002-2.141 1.07 1.07 0 0 0 .003 2.141Zm8.35-1.078a1.07 1.07 0 1 1-2.141.002 1.07 1.07 0 0 1 2.141-.002Z" fill="#440005"/><path fill-rule="evenodd" clip-rule="evenodd" d="M13.74 12.194c-.197.052-.354.141-.515.293-.13.124-.305.406-.305.494 0 .066-.05.064-.206-.01-.14-.065-.189-.073-.441-.073-.274 0-.291.003-.487.1a1.122 1.122 0 0 0-.507 1.546l.05.085-.123.042a1.16 1.16 0 0 0-.766.9c-.06.325.066.713.313.96.133.133.434.308.529.308.043 0 .039.019-.033.173a.994.994 0 0 0-.097.377 1.123 1.123 0 0 0 1.595 1.107c.135-.062.15-.064.163-.022.077.241.212.453.37.583.122.1.377.229.453.23.044 0 .047.046.047.607v.608l-.103-.13c-.567-.716-1.472-1.08-2.805-1.13l-.448-.018-.07.07c-.038.04-.07.1-.07.136 0 .104.205.671.34.942.444.888 1.04 1.375 1.906 1.554.186.038.738.047 1.04.016l.208-.021.016 1.378.075.065c.097.083.192.082.276-.001l.066-.066v-1.378l.222.022c.367.036.87.023 1.109-.03.996-.221 1.679-.92 2.085-2.136.117-.349.116-.415-.005-.5-.113-.079-.861-.044-1.436.067-.769.148-1.403.486-1.796.958l-.166.198-.007-.571a7.592 7.592 0 0 1 .006-.606c.007-.02.033-.035.057-.035.094 0 .384-.165.504-.288.163-.165.223-.257.277-.424.025-.074.047-.138.05-.142a.802.802 0 0 1 .154.06c.447.206.95.111 1.283-.24.358-.38.413-.908.144-1.388-.004-.009.058-.036.139-.062.269-.084.521-.319.657-.609.093-.2.113-.572.043-.784a1.255 1.255 0 0 0-.25-.437c-.098-.107-.365-.278-.47-.3-.128-.028-.128-.029-.056-.185.037-.08.08-.221.096-.314.083-.47-.19-.974-.643-1.189-.169-.08-.202-.086-.464-.086-.255 0-.3.007-.451.078a.717.717 0 0 1-.177.067 1.655 1.655 0 0 1-.056-.14 1.163 1.163 0 0 0-.652-.664 1.285 1.285 0 0 0-.668-.045Zm.57.471c.14.072.313.268.353.403.064.212.026.484-.084.61-.05.059-.07.065-.142.044-.22-.064-.756-.057-.94.014-.024.009-.062-.036-.11-.13a.69.69 0 0 1 .664-1.007.804.804 0 0 1 .26.066Zm-1.753.713a.717.717 0 0 1 .375.426c.04.133.04.145-.002.17-.212.126-.545.457-.696.693-.024.036-.044.037-.156.008a.69.69 0 0 1-.497-.728.69.69 0 0 1 .976-.569Zm3.47 0a.705.705 0 0 1 .403.717.74.74 0 0 1-.536.591c-.095.022-.1.02-.19-.118a2.504 2.504 0 0 0-.545-.54c-.127-.083-.13-.095-.076-.252a.714.714 0 0 1 .436-.434.793.793 0 0 1 .507.036Zm-1.736.755c.374.067.77.301.99.587.516.669.469 1.572-.112 2.159a1.565 1.565 0 0 1-1.253.49 1.625 1.625 0 0 1-1.37-2.358c.198-.4.59-.725 1.02-.845.27-.076.441-.084.725-.033Zm-2.421.992c.135.07.13.051.086.387-.027.205-.009.567.036.709.03.096-.221.214-.455.214-.357 0-.688-.337-.688-.7a.86.86 0 0 1 .146-.417.885.885 0 0 1 .4-.257.767.767 0 0 1 .475.064Zm4.786-.046a.79.79 0 0 1 .436.374.756.756 0 0 1-.025.609.715.715 0 0 1-.417.348.815.815 0 0 1-.53-.059c-.101-.057-.11-.07-.096-.144.038-.19.048-.634.017-.808-.037-.217-.026-.236.191-.311a.543.543 0 0 1 .424-.01Zm-4.32 1.874c.134.188.318.369.51.5.113.078.126.096.11.16a.73.73 0 0 1-.363.476.53.53 0 0 1-.319.078.632.632 0 0 1-.467-.173.702.702 0 0 1-.106-.918c.102-.151.312-.28.47-.289.026-.001.096.07.165.166Zm3.69-.105a.707.707 0 0 1 .378.435c.145.5-.305.986-.81.873a.685.685 0 0 1-.494-.403c-.082-.18-.073-.217.072-.309a2.4 2.4 0 0 0 .545-.547c.079-.13.12-.137.31-.049Zm-2.03.946c.155 0 .345-.01.423-.023l.141-.023.067.144c.216.463-.107.99-.606.99a.65.65 0 0 1-.424-.127.704.704 0 0 1-.19-.919c.052-.087.056-.088.18-.066.07.013.253.024.409.024Zm-2.344 1.952c.944.16 1.587.587 1.926 1.279.094.193.17.428.147.451a1.52 1.52 0 0 1-.24.041c-.824.104-1.489-.102-1.985-.615-.266-.275-.571-.797-.691-1.182l-.02-.064.279.019c.153.01.416.042.584.07Zm5.527.031c-.511 1.337-1.385 1.904-2.677 1.739-.13-.017-.238-.04-.238-.05 0-.044.107-.322.176-.459.35-.694.96-1.092 1.93-1.262.315-.056.44-.07.698-.077l.154-.005-.043.114Z" fill="#440005"/></svg>