<svg width="30" height="28" fill="none" xmlns="http://www.w3.org/2000/svg"><path d="M14.995 13.035a.244.244 0 0 1-.243-.246v-1.474c0-.136.109-.246.243-.246s.243.11.243.245v1.475a.244.244 0 0 1-.243.246ZM14.995 23.358a.244.244 0 0 1-.243-.246v-1.475c0-.136.109-.246.243-.246s.243.11.243.246v1.475a.244.244 0 0 1-.243.246ZM19.368 16.967a.244.244 0 0 0-.242.246c0 .136.108.246.242.246h1.458c.134 0 .243-.11.243-.246a.244.244 0 0 0-.243-.246h-1.458ZM8.92 17.213c0-.136.11-.246.244-.246h1.458c.134 0 .243.11.243.246a.244.244 0 0 1-.243.246H9.164a.244.244 0 0 1-.243-.246ZM18.502 20.066a.241.241 0 0 0-.343 0 .248.248 0 0 0 0 .347l1.718 1.738a.241.241 0 0 0 .343 0 .248.248 0 0 0 0-.347l-1.718-1.738ZM10.065 12.419a.241.241 0 0 1 .343 0l1.718 1.738a.248.248 0 0 1 0 .348.241.241 0 0 1-.343 0l-1.718-1.738a.248.248 0 0 1 0-.348ZM17.815 14.157a.248.248 0 0 0 0 .348.241.241 0 0 0 .344 0l1.718-1.738a.248.248 0 0 0 0-.348.241.241 0 0 0-.344 0l-1.718 1.738ZM9.77 22.151a.248.248 0 0 1 0-.347l1.718-1.738a.241.241 0 0 1 .343 0 .248.248 0 0 1 0 .347l-1.718 1.738a.241.241 0 0 1-.343 0Z" fill="#440005"/><path fill-rule="evenodd" clip-rule="evenodd" d="M18.154 17.213c0 1.765-1.415 3.195-3.159 3.195-1.744 0-3.159-1.43-3.159-3.195s1.415-3.195 3.16-3.195c1.743 0 3.158 1.43 3.158 3.195Zm-.486 0c0 1.493-1.197 2.704-2.673 2.704s-2.673-1.21-2.673-2.704c0-1.493 1.197-2.703 2.673-2.703s2.673 1.21 2.673 2.703Z" fill="#440005"/><path fill-rule="evenodd" clip-rule="evenodd" d="M0 1.452C0 .734.574.152 1.284.15L28.69.125c.71 0 1.286.58 1.286 1.298L30 26.116c0 .957-.765 1.733-1.711 1.734l-26.552.025a1.723 1.723 0 0 1-1.714-1.731L0 1.452Zm29.128 7.337L.863 8.815.88 26.143c0 .479.384.866.857.866l26.552-.025a.862.862 0 0 0 .855-.868L29.128 8.79ZM8.566 2.527c0 .598-.478 1.083-1.07 1.083A1.077 1.077 0 0 1 6.425 2.53c0-.599.478-1.084 1.07-1.084.59-.001 1.07.483 1.07 1.081Zm6.21 1.077c.592 0 1.07-.486 1.07-1.084 0-.598-.48-1.083-1.072-1.082-.59 0-1.07.486-1.07 1.084.002.598.481 1.082 1.072 1.082Zm8.35-1.091c0 .598-.478 1.083-1.07 1.084a1.077 1.077 0 0 1-1.07-1.082c-.001-.598.477-1.084 1.069-1.084.591 0 1.07.484 1.071 1.082Z" fill="#440005"/></svg>