<svg width="30" height="28" fill="none" xmlns="http://www.w3.org/2000/svg"><path fill-rule="evenodd" clip-rule="evenodd" d="M0 1.595C0 .885.574.31 1.284.309L28.69.284c.71-.001 1.286.574 1.286 1.283L30 25.977c0 .946-.765 1.714-1.711 1.715l-26.552.024a1.713 1.713 0 0 1-1.714-1.711L0 1.595Zm29.128 7.253L.863 8.874l.016 17.13c0 .473.384.856.857.856l26.552-.025a.857.857 0 0 0 .855-.857l-.015-17.13ZM8.566 2.658a1.07 1.07 0 1 1-2.141.002 1.07 1.07 0 0 1 2.14-.002Zm6.21 1.064a1.07 1.07 0 1 0-.002-2.141 1.07 1.07 0 0 0 .003 2.141Zm8.35-1.078a1.07 1.07 0 1 1-2.141.002 1.07 1.07 0 0 1 2.141-.002Z" fill="#440005"/><path fill-rule="evenodd" clip-rule="evenodd" d="m15.1 11.013-.66 1.583c-.252.482-.41.882-.522 1.285-.13.466-.197.935-.282 1.524l-.023.158a3.966 3.966 0 0 0-.514-.155l-.195-.04c-.182-.037-.444-.09-.947-.208l-.36-.085.056.365c.085.554.341 1.167.594 1.66-.66-.314-1.655-.72-2.941-1.106l-.398-.119.081.407c.396 1.977 1.293 3.251 1.923 3.857-.243.083-.561.18-.9.255l-.462.102.346.323c1.89 1.763 3.81 1.67 4.836 1.287v2.021a.25.25 0 0 0 .5 0v-2.02c1.026.382 2.946.475 4.835-1.288l.346-.323-.463-.102a8.525 8.525 0 0 1-.898-.255c.63-.606 1.526-1.88 1.922-3.857l.082-.407-.399.12a21.027 21.027 0 0 0-2.94 1.104c.252-.492.508-1.105.594-1.659l.056-.365-.36.085c-.504.118-.766.17-.948.208l-.195.04c-.154.034-.271.07-.513.155-.02-.14-.037-.274-.054-.4-.062-.466-.114-.854-.209-1.234a5.642 5.642 0 0 0-.459-1.202l-.529-1.714Zm-.224 1.825.003.001.014-.032c.033-.064.07-.131.107-.2.332.597.498 1.023.603 1.443.089.352.135.697.194 1.144.029.219.061.463.104.744l.045.301.287-.104c.46-.167.57-.203.74-.24l.172-.036c.13-.026.311-.063.59-.125-.203.725-.647 1.51-.879 1.857l.343.348c.338-.217 1.445-.785 3.192-1.34-.502 2.008-1.53 3.118-1.969 3.417l-.375.256.418.179c.152.065.492.193.907.31-1.745 1.405-3.41 1.148-4.14.805v-.38l1.094-.718 1.114.635a.249.249 0 1 0 .248-.433l-.895-.51 1.991-1.309a.249.249 0 1 0-.275-.416l-3.277 2.155v-1.835l1.415-1.255a.249.249 0 0 0 .02-.352.25.25 0 0 0-.352-.02l-1.083.96v-.858a.25.25 0 0 0-.5 0v.811l-.906-.904a.25.25 0 0 0-.354 0 .249.249 0 0 0 0 .353l1.26 1.256v1.838l-3.192-2.148a.25.25 0 0 0-.347.068.249.249 0 0 0 .067.346l1.969 1.324-.885.588a.249.249 0 1 0 .277.415l1-.665a.247.247 0 0 0 .048-.042l1.063.715v.381c-.73.343-2.396.6-4.141-.804.415-.118.755-.246.907-.311l.418-.179-.375-.256c-.438-.299-1.467-1.409-1.969-3.417 1.747.555 2.854 1.123 3.192 1.34l.343-.348c-.232-.348-.675-1.133-.879-1.857.279.062.46.099.59.125l.173.036c.169.037.28.073.74.24l.286.104.046-.301.07-.477c.084-.585.147-1.014.267-1.446.1-.36.242-.725.476-1.177Z" fill="#440005"/></svg>