<svg width="20" height="20" fill="none" xmlns="http://www.w3.org/2000/svg"><path fill-rule="evenodd" clip-rule="evenodd" d="M10 20c5.523 0 10-4.477 10-10S15.523 0 10 0 0 4.477 0 10s4.477 10 10 10Zm-1.07-7.695c.03.166.073.317.125.453h2.054a1.194 1.194 0 0 1-.14-.328 1.634 1.634 0 0 1-.047-.383 1.487 1.487 0 0 1 .273-.89c.094-.131.209-.261.344-.391.14-.13.302-.271.484-.422.271-.224.51-.44.72-.649.207-.213.382-.435.523-.664.14-.229.247-.471.32-.726.073-.26.11-.55.11-.867 0-.5-.09-.928-.266-1.282a2.314 2.314 0 0 0-.727-.883 3.018 3.018 0 0 0-1.086-.5 5.31 5.31 0 0 0-1.351-.164c-.506 0-.995.06-1.47.18-.473.12-.91.3-1.312.54v2.35c.391-.343.805-.598 1.243-.765.437-.172.859-.258 1.265-.258.188 0 .357.029.508.086.156.057.287.136.39.235.11.099.193.218.25.359.058.135.087.284.087.445 0 .188-.027.36-.079.516-.052.15-.13.3-.234.445a3.5 3.5 0 0 1-.383.43c-.146.14-.318.294-.515.46a4.306 4.306 0 0 0-.493.477c-.14.157-.257.323-.351.5a2.219 2.219 0 0 0-.211.555c-.047.198-.07.417-.07.656 0 .151.013.313.039.485Zm.226 3.5c.276.25.623.375 1.04.375.416 0 .76-.123 1.03-.367a1.21 1.21 0 0 0 .399-.93c0-.37-.135-.675-.406-.914-.271-.245-.612-.367-1.024-.367-.416 0-.763.122-1.039.367-.276.245-.414.55-.414.914 0 .354.138.661.414.922Z" fill="#B92617"/></svg>