<svg width="30" height="28" viewBox="0 0 30 28" fill="none" xmlns="http://www.w3.org/2000/svg">
<path fill-rule="evenodd" clip-rule="evenodd" d="M5.66355e-07 1.59493C-0.000658513 0.88539 0.574006 0.309657 1.28355 0.308998L28.6914 0.283539C29.4009 0.28288 29.9767 0.857545 29.9773 1.56709L30 25.9772C30.0009 26.9233 29.2347 27.6909 28.2886 27.6918L1.73726 27.7164C0.791197 27.7173 0.0235534 26.9511 0.0226746 26.005L5.66355e-07 1.59493ZM29.1276 8.84809L0.863258 8.87435L0.87917 26.0042C0.879609 26.4773 1.26343 26.8604 1.73646 26.8599L28.2878 26.8353C28.7608 26.8348 29.1439 26.451 29.1435 25.978L29.1276 8.84809ZM8.56594 2.6576C8.56649 3.24888 8.08761 3.72866 7.49632 3.72921C6.90503 3.72976 6.42526 3.25087 6.42471 2.65959C6.42416 2.0683 6.90305 1.58852 7.49433 1.58797C8.08562 1.58742 8.5654 2.06631 8.56594 2.6576ZM14.7765 3.72245C15.3678 3.7219 15.8467 3.24212 15.8462 2.65083C15.8456 2.05955 15.3658 1.58066 14.7745 1.58121C14.1833 1.58176 13.7044 2.06154 13.7049 2.65282C13.7055 3.24411 14.1852 3.723 14.7765 3.72245ZM23.1264 2.64407C23.1269 3.23536 22.648 3.71514 22.0567 3.71569C21.4655 3.71623 20.9857 3.23735 20.9851 2.64606C20.9846 2.05477 21.4635 1.575 22.0547 1.57445C22.646 1.5739 23.1258 2.05279 23.1264 2.64407Z" fill="#440005"/>
<path fill-rule="evenodd" clip-rule="evenodd" d="M15.1004 11.0133L14.4393 12.596C14.1885 13.0781 14.0307 13.478 13.9183 13.8814C13.7887 14.3471 13.7209 14.8156 13.6356 15.4052L13.6356 15.4057C13.6281 15.4572 13.6205 15.5096 13.6128 15.5631C13.3709 15.4776 13.2536 15.4425 13.0992 15.4082C13.0403 15.3952 12.979 15.3828 12.9041 15.3676C12.7222 15.3308 12.4599 15.2777 11.9569 15.1596L11.5964 15.075L11.6527 15.4402C11.738 15.9936 11.9944 16.6066 12.2466 17.0993C11.5875 16.7863 10.5923 16.3794 9.30595 15.9945L8.90753 15.8752L8.98911 16.2821C9.38548 18.2591 10.2822 19.5333 10.9118 20.1389C10.6687 20.2222 10.3507 20.319 10.0129 20.3938L9.55043 20.4964L9.89641 20.8192C11.7854 22.582 13.7055 22.4889 14.7318 22.1062V24.1271C14.7318 24.2648 14.8437 24.3764 14.9817 24.3764C15.1197 24.3764 15.2316 24.2648 15.2316 24.1271V22.1062C16.2578 22.4889 18.1779 22.582 20.0669 20.8192L20.4129 20.4964L19.9504 20.3938C19.6127 20.319 19.2946 20.2222 19.0515 20.1389C19.6811 19.5333 20.5778 18.2591 20.9742 16.2821L21.0558 15.8752L20.6574 15.9945C19.371 16.3794 18.3758 16.7863 17.7167 17.0993C17.969 16.6066 18.2253 15.9936 18.3106 15.4402L18.367 15.075L18.0064 15.1596C17.5034 15.2777 17.2412 15.3308 17.0593 15.3676C16.9843 15.3828 16.923 15.3952 16.8641 15.4082C16.7099 15.4424 16.5927 15.4776 16.3514 15.5628C16.3318 15.4224 16.314 15.2893 16.2971 15.1621C16.2351 14.6965 16.1835 14.3092 16.0883 13.9293C15.9939 13.5525 15.8568 13.1793 15.629 12.7271L15.1004 11.0133ZM14.8764 12.8381L14.8791 12.8392L14.8925 12.8073C14.9263 12.7426 14.9621 12.676 14.9998 12.6074C15.3319 13.2041 15.4981 13.63 15.6034 14.0502C15.6917 14.4023 15.7375 14.7472 15.7969 15.1938C15.826 15.4129 15.8585 15.6569 15.9007 15.9378L15.946 16.2393L16.2332 16.1351C16.6932 15.9683 16.8034 15.9324 16.9725 15.8949C17.0203 15.8843 17.0754 15.8732 17.1451 15.8591C17.2753 15.8327 17.4564 15.796 17.735 15.7336C17.5318 16.4585 17.0884 17.2432 16.8562 17.5906L17.1992 17.9386C17.537 17.722 18.6439 17.1542 20.391 16.5985C19.8889 18.607 18.8604 19.717 18.4223 20.016L18.047 20.2722L18.465 20.4508C18.6171 20.5159 18.9573 20.644 19.3725 20.7616C17.6271 22.1662 15.9621 21.9093 15.2316 21.566V21.1869L16.3255 20.4677L17.4399 21.1029C17.5597 21.1712 17.7124 21.1297 17.7808 21.0101C17.8493 20.8906 17.8077 20.7383 17.6879 20.67L16.7933 20.1601L18.7843 18.8511C18.8995 18.7753 18.9313 18.6207 18.8554 18.5058C18.7794 18.3908 18.6245 18.359 18.5092 18.4348L15.2316 20.5898V18.7549L16.647 17.4998C16.7502 17.4083 16.7595 17.2507 16.6678 17.1478C16.5761 17.0449 16.4181 17.0357 16.315 17.1271L15.2316 18.0878V17.2304C15.2316 17.0927 15.1197 16.9811 14.9817 16.9811C14.8437 16.9811 14.7318 17.0927 14.7318 17.2304V18.0411L13.8256 17.1372C13.728 17.0398 13.5698 17.0398 13.4722 17.1372C13.3746 17.2345 13.3746 17.3924 13.4722 17.4897L14.7318 18.7462V20.5839L11.5396 18.4363C11.4252 18.3593 11.2699 18.3894 11.1927 18.5036C11.1155 18.6177 11.1457 18.7726 11.2602 18.8496L13.2286 20.1739L12.3441 20.7622C12.2293 20.8385 12.1983 20.9933 12.2748 21.1078C12.3514 21.2224 12.5065 21.2533 12.6214 21.177L13.6209 20.5122C13.6392 20.5001 13.6553 20.486 13.6692 20.4704L14.7318 21.1852V21.566C14.0013 21.9093 12.3362 22.1662 10.5908 20.7616C11.006 20.644 11.3462 20.5159 11.4983 20.4508L11.9163 20.2722L11.541 20.016C11.103 19.717 10.0744 18.607 9.57234 16.5985C11.3194 17.1542 12.4263 17.722 12.7641 17.9386L13.1072 17.5906C12.8749 17.2432 12.4315 16.4585 12.2283 15.7336C12.5069 15.796 12.6879 15.8327 12.8182 15.859C12.8878 15.8732 12.943 15.8843 12.9908 15.8949C13.1599 15.9324 13.2701 15.9683 13.7301 16.1351L14.0173 16.2393L14.0626 15.9378C14.0883 15.7672 14.1112 15.6092 14.1326 15.4611C14.2173 14.8764 14.2795 14.4471 14.3999 14.0149C14.5003 13.6543 14.6421 13.2903 14.8764 12.8381Z" fill="#440005"/>
</svg>
