<svg width="21" height="20" viewBox="0 0 21 20" fill="none" xmlns="http://www.w3.org/2000/svg">
<path fill-rule="evenodd" clip-rule="evenodd" d="M10.5 20C16.0228 20 20.5 15.5228 20.5 10C20.5 4.47715 16.0228 0 10.5 0C4.97715 0 0.5 4.47715 0.5 10C0.5 15.5228 4.97715 20 10.5 20ZM16.7806 6.35355C16.9758 6.15829 16.9758 5.84171 16.7806 5.64645C16.5853 5.45118 16.2687 5.45118 16.0735 5.64645L9.04608 12.6738L5.89043 8.72927C5.71793 8.51364 5.40328 8.47868 5.18765 8.65118C4.97202 8.82369 4.93706 9.13834 5.10957 9.35397L8.48487 13.5731C8.59924 13.7161 8.77608 13.7796 8.94512 13.7559C9.12587 13.8296 9.34101 13.7931 9.48769 13.6464L16.7806 6.35355Z" fill="#42BA96"/>
</svg>
