<svg width="30" height="28" viewBox="0 0 30 28" fill="none" xmlns="http://www.w3.org/2000/svg">
<path fill-rule="evenodd" clip-rule="evenodd" d="M5.66355e-07 1.59493C-0.000658514 0.88539 0.574006 0.309657 1.28355 0.308998L28.6914 0.283539C29.4009 0.28288 29.9767 0.857545 29.9773 1.56709L30 25.9772C30.0009 26.9233 29.2347 27.6909 28.2886 27.6918L1.73726 27.7164C0.791198 27.7173 0.0235534 26.9511 0.0226746 26.005L5.66355e-07 1.59493ZM29.1276 8.84809L0.863258 8.87435L0.87917 26.0042C0.879609 26.4773 1.26343 26.8604 1.73646 26.8599L28.2878 26.8353C28.7608 26.8348 29.1439 26.451 29.1435 25.978L29.1276 8.84809ZM8.56594 2.6576C8.56649 3.24888 8.08761 3.72866 7.49632 3.72921C6.90503 3.72976 6.42526 3.25087 6.42471 2.65959C6.42416 2.0683 6.90304 1.58852 7.49433 1.58797C8.08562 1.58742 8.5654 2.06631 8.56594 2.6576ZM14.7765 3.72245C15.3678 3.7219 15.8467 3.24212 15.8462 2.65083C15.8456 2.05955 15.3658 1.58066 14.7745 1.58121C14.1833 1.58176 13.7044 2.06154 13.7049 2.65282C13.7055 3.24411 14.1852 3.723 14.7765 3.72245ZM23.1264 2.64407C23.1269 3.23536 22.648 3.71514 22.0567 3.71569C21.4655 3.71623 20.9857 3.23735 20.9851 2.64606C20.9846 2.05477 21.4635 1.575 22.0547 1.57445C22.646 1.5739 23.1258 2.05279 23.1264 2.64407Z" fill="#440005"/>
<path fill-rule="evenodd" clip-rule="evenodd" d="M13.74 12.1943C13.5428 12.2457 13.3857 12.335 13.2245 12.4875C13.0944 12.6106 12.9197 12.8935 12.9197 12.9812C12.9197 13.0472 12.8706 13.045 12.7141 12.9719C12.5739 12.9064 12.5254 12.8983 12.2729 12.8981C11.9994 12.8978 11.9819 12.9014 11.7863 12.9981C11.5397 13.1199 11.3621 13.3 11.2479 13.5441C11.1042 13.8512 11.1172 14.2647 11.2791 14.5436L11.3288 14.6292L11.2061 14.671C10.8064 14.8072 10.5188 15.1449 10.4396 15.5709C10.3791 15.8962 10.5056 16.2837 10.753 16.5307C10.8862 16.6638 11.1865 16.8386 11.2819 16.8386C11.3247 16.8386 11.321 16.8578 11.2488 17.0123C11.1903 17.1373 11.1632 17.2428 11.1521 17.3892C11.0871 18.2493 11.9607 18.8554 12.7467 18.4955C12.882 18.4336 12.8965 18.4317 12.91 18.4737C12.9873 18.7153 13.1219 18.9274 13.2803 19.0572C13.4016 19.1566 13.6571 19.2857 13.7333 19.2862C13.7767 19.2864 13.7803 19.3334 13.7803 19.8941V20.5017L13.6771 20.3715C13.11 19.6564 12.2053 19.2919 10.8718 19.2414L10.4242 19.2244L10.354 19.2946C10.3155 19.3331 10.2839 19.3942 10.2839 19.4302C10.2839 19.5337 10.489 20.1011 10.6241 20.3715C11.0683 21.2602 11.6649 21.7468 12.5297 21.9256C12.7158 21.9641 13.2683 21.9727 13.5706 21.9417L13.7777 21.9205L13.7938 23.2992L13.8693 23.364C13.9656 23.4469 14.0611 23.4465 14.1446 23.3629L14.2107 23.2969V21.9189L14.4326 21.9409C14.8 21.9774 15.3037 21.9637 15.542 21.9109C16.5378 21.6899 17.2209 20.9902 17.6272 19.7748C17.7438 19.4261 17.7431 19.3604 17.6221 19.2757C17.5089 19.1963 16.761 19.2308 16.1858 19.3418C15.4171 19.4902 14.7832 19.8283 14.39 20.2996L14.2241 20.4984L14.2168 19.9267C14.2129 19.6123 14.2155 19.3396 14.2227 19.3207C14.23 19.3019 14.2557 19.2864 14.28 19.2864C14.3744 19.2864 14.6635 19.121 14.7844 18.9979C14.9466 18.8327 15.0065 18.7409 15.0614 18.5736C15.0856 18.4996 15.108 18.4359 15.1112 18.432C15.1144 18.4281 15.1836 18.4554 15.2651 18.4927C15.7125 18.6976 16.2152 18.603 16.5477 18.2513C16.906 17.8725 16.961 17.3443 16.6924 16.8638C16.6878 16.8555 16.7501 16.8279 16.8309 16.8024C17.0997 16.7177 17.352 16.4835 17.4876 16.193C17.5807 15.9935 17.6014 15.6213 17.5312 15.409C17.478 15.2481 17.3864 15.0887 17.2802 14.9722C17.183 14.8654 16.9159 14.6943 16.8115 14.6719C16.6835 14.6444 16.6832 14.6434 16.755 14.4866C16.7915 14.4068 16.8348 14.2656 16.8511 14.1729C16.9339 13.7027 16.6614 13.1988 16.2083 12.9842C16.0393 12.904 16.0058 12.8978 15.7437 12.8978C15.4889 12.8978 15.4448 12.9054 15.2927 12.9757C15.1999 13.0186 15.1204 13.0488 15.1159 13.043C15.1114 13.0371 15.0863 12.9745 15.0602 12.9039C14.9499 12.6063 14.6959 12.3474 14.4082 12.2393C14.2158 12.167 13.9209 12.1472 13.74 12.1943ZM14.3102 12.6651C14.4509 12.7369 14.6229 12.9329 14.6632 13.0675C14.7269 13.28 14.6894 13.5523 14.5792 13.6784C14.5282 13.7369 14.5085 13.7429 14.4371 13.722C14.2173 13.6576 13.6805 13.6654 13.4978 13.7355C13.4735 13.7448 13.4355 13.7003 13.3872 13.6062C13.1391 13.1229 13.5088 12.5623 14.0512 12.5992C14.1337 12.6048 14.2502 12.6345 14.3102 12.6651ZM12.5566 13.3781C12.734 13.4609 12.8789 13.6251 12.9325 13.8041C12.9722 13.9365 12.972 13.9489 12.9302 13.9738C12.7177 14.1003 12.3852 14.4313 12.2339 14.6669C12.2105 14.7032 12.19 14.7043 12.0782 14.6747C11.7644 14.5917 11.5524 14.2815 11.5808 13.9471C11.6213 13.4702 12.1248 13.1765 12.5566 13.3781ZM16.0261 13.3781C16.3006 13.5062 16.4693 13.8058 16.4296 14.0946C16.392 14.3681 16.1579 14.6266 15.8939 14.6861C15.7987 14.7076 15.7949 14.7053 15.7036 14.5677C15.5968 14.4067 15.3263 14.1391 15.1587 14.0286C15.0316 13.9447 15.0281 13.9329 15.0832 13.7764C15.1544 13.5748 15.331 13.3987 15.5187 13.3425C15.6701 13.2972 15.885 13.3122 16.0261 13.3781ZM14.2914 14.1328C14.6655 14.1996 15.0605 14.434 15.281 14.7198C15.7968 15.3888 15.7499 16.2918 15.1687 16.8787C14.8172 17.2338 14.4027 17.396 13.916 17.369C12.7358 17.3037 12.0203 16.0723 12.546 15.011C12.7437 14.6118 13.1366 14.286 13.5652 14.1658C13.8363 14.0898 14.0072 14.082 14.2914 14.1328ZM11.87 15.1253C12.005 15.1954 12.0008 15.1764 11.9559 15.512C11.9286 15.7167 11.947 16.0787 11.992 16.2205C12.0225 16.3166 11.7708 16.4353 11.5373 16.4348C11.1799 16.4342 10.8487 16.0976 10.8487 15.7351C10.8487 15.6191 10.9196 15.4174 10.9953 15.3182C11.0726 15.2168 11.2624 15.0947 11.3956 15.0607C11.527 15.0271 11.7355 15.0555 11.87 15.1253ZM16.6558 15.0785C16.8252 15.1288 17.0204 15.2965 17.092 15.4533C17.1704 15.6249 17.1598 15.8844 17.0672 16.0617C16.9805 16.2275 16.8152 16.3658 16.6503 16.4105C16.4928 16.4531 16.2538 16.4263 16.1199 16.351C16.0187 16.2941 16.0099 16.2808 16.0245 16.207C16.0624 16.0165 16.0717 15.5726 16.0414 15.3987C16.0036 15.1815 16.0152 15.1627 16.2321 15.0877C16.4096 15.0264 16.4757 15.025 16.6558 15.0785ZM12.3357 16.9529C12.47 17.141 12.6544 17.3218 12.8459 17.4531C12.959 17.5306 12.9718 17.5492 12.9564 17.6133C12.9074 17.8182 12.7772 17.9887 12.5934 18.0888C12.4748 18.1535 12.4178 18.1674 12.2742 18.1666C12.0735 18.1654 11.9494 18.1197 11.8067 17.9945C11.5477 17.767 11.5021 17.3713 11.701 17.0761C11.8031 16.9246 12.0134 16.7953 12.171 16.7871C12.1966 16.7858 12.267 16.8566 12.3357 16.9529ZM16.0261 16.8481C16.2081 16.933 16.3496 17.0957 16.4039 17.2828C16.5495 17.7837 16.0991 18.2695 15.594 18.1563C15.3655 18.105 15.1976 17.9679 15.1004 17.7532C15.0185 17.5721 15.027 17.5356 15.1722 17.4443C15.3289 17.3459 15.6259 17.0477 15.7168 16.8974C15.7958 16.7669 15.8378 16.7602 16.0261 16.8481ZM13.9955 17.7935C14.1508 17.7935 14.3415 17.7833 14.4192 17.7708L14.5605 17.7481L14.6274 17.8919C14.8431 18.3553 14.5203 18.8829 14.0211 18.8829C13.8414 18.8829 13.7192 18.8462 13.597 18.7554C13.3081 18.5408 13.2241 18.1359 13.4062 17.8363C13.4592 17.7493 13.4629 17.7479 13.5867 17.7705C13.6562 17.7832 13.8402 17.7935 13.9955 17.7935ZM11.6517 19.7459C12.596 19.9057 13.2393 20.333 13.5775 21.025C13.6717 21.2177 13.7482 21.4526 13.7245 21.4763C13.7175 21.4832 13.6096 21.5018 13.4846 21.5175C12.6607 21.6208 11.996 21.4147 11.5 20.902C11.2337 20.6268 10.9286 20.1049 10.809 19.7199L10.789 19.6557L11.0676 19.6749C11.2209 19.6855 11.4837 19.7174 11.6517 19.7459ZM17.1788 19.7773C16.6677 21.1137 15.7935 21.6813 14.5016 21.5156C14.3712 21.4988 14.2645 21.4765 14.2645 21.466C14.2645 21.4216 14.3705 21.1438 14.4395 21.0074C14.7905 20.3132 15.3992 19.9151 16.3706 19.7446C16.6846 19.6894 16.8101 19.6756 17.0681 19.6677L17.2225 19.663L17.1788 19.7773Z" fill="#440005"/>
</svg>
