<svg width="30" height="28" viewBox="0 0 30 28" fill="none" xmlns="http://www.w3.org/2000/svg">
<path d="M14.9951 13.035C14.8609 13.035 14.7521 12.9249 14.7521 12.7892V11.3145C14.7521 11.1788 14.8609 11.0688 14.9951 11.0688C15.1292 11.0688 15.238 11.1788 15.238 11.3145V12.7892C15.238 12.9249 15.1292 13.035 14.9951 13.035Z" fill="#440005"/>
<path d="M14.9951 23.3575C14.8609 23.3575 14.7521 23.2474 14.7521 23.1117V21.637C14.7521 21.5013 14.8609 21.3913 14.9951 21.3913C15.1292 21.3913 15.238 21.5013 15.238 21.637V23.1117C15.238 23.2474 15.1292 23.3575 14.9951 23.3575Z" fill="#440005"/>
<path d="M19.3684 16.9673C19.2342 16.9673 19.1255 17.0774 19.1255 17.2131C19.1255 17.3488 19.2342 17.4589 19.3684 17.4589H20.8262C20.9604 17.4589 21.0692 17.3488 21.0692 17.2131C21.0692 17.0774 20.9604 16.9673 20.8262 16.9673H19.3684Z" fill="#440005"/>
<path d="M8.92093 17.2131C8.92093 17.0774 9.02971 16.9673 9.16389 16.9673H10.6217C10.7559 16.9673 10.8647 17.0774 10.8647 17.2131C10.8647 17.3488 10.7559 17.4589 10.6217 17.4589H9.16389C9.02971 17.4589 8.92093 17.3488 8.92093 17.2131Z" fill="#440005"/>
<path d="M18.5023 20.0657C18.4074 19.9697 18.2536 19.9697 18.1587 20.0657C18.0638 20.1617 18.0638 20.3173 18.1587 20.4133L19.8767 22.1512C19.9716 22.2471 20.1254 22.2471 20.2203 22.1512C20.3152 22.0552 20.3152 21.8996 20.2203 21.8036L18.5023 20.0657Z" fill="#440005"/>
<path d="M10.0646 12.419C10.1595 12.3231 10.3133 12.3231 10.4082 12.419L12.1262 14.1569C12.2211 14.2529 12.2211 14.4085 12.1262 14.5045C12.0313 14.6005 11.8775 14.6005 11.7826 14.5045L10.0646 12.7666C9.96971 12.6706 9.96971 12.515 10.0646 12.419Z" fill="#440005"/>
<path d="M17.8151 14.1569C17.7202 14.2529 17.7202 14.4085 17.8151 14.5045C17.9099 14.6005 18.0638 14.6005 18.1587 14.5045L19.8767 12.7666C19.9716 12.6706 19.9716 12.515 19.8767 12.419C19.7818 12.3231 19.628 12.3231 19.5331 12.419L17.8151 14.1569Z" fill="#440005"/>
<path d="M9.76981 22.1512C9.67492 22.0552 9.67492 21.8996 9.76981 21.8036L11.4878 20.0657C11.5827 19.9697 11.7366 19.9697 11.8314 20.0657C11.9263 20.1617 11.9263 20.3173 11.8314 20.4133L10.1134 22.1512C10.0185 22.2472 9.86469 22.2472 9.76981 22.1512Z" fill="#440005"/>
<path fill-rule="evenodd" clip-rule="evenodd" d="M18.1536 17.2131C18.1536 18.9777 16.7395 20.4082 14.9951 20.4082C13.2506 20.4082 11.8365 18.9777 11.8365 17.2131C11.8365 15.4485 13.2506 14.0181 14.9951 14.0181C16.7395 14.0181 18.1536 15.4485 18.1536 17.2131ZM17.6677 17.2131C17.6677 18.7062 16.4711 19.9166 14.9951 19.9166C13.519 19.9166 12.3224 18.7062 12.3224 17.2131C12.3224 15.72 13.519 14.5096 14.9951 14.5096C16.4711 14.5096 17.6677 15.72 17.6677 17.2131Z" fill="#440005"/>
<path fill-rule="evenodd" clip-rule="evenodd" d="M5.66355e-07 1.45155C-0.000658514 0.733808 0.574006 0.15142 1.28355 0.150753L28.6914 0.125001C29.4009 0.124334 29.9767 0.705641 29.9773 1.42339L30 26.1157C30.0009 27.0726 29.2347 27.8492 28.2886 27.8501L1.73726 27.875C0.791198 27.8759 0.0235534 27.1008 0.0226746 26.1438L5.66355e-07 1.45155ZM29.1276 8.78855L0.863258 8.81511L0.87917 26.143C0.879609 26.6215 1.26343 27.0091 1.73646 27.0086L28.2878 26.9837C28.7608 26.9832 29.1439 26.595 29.1435 26.1165L29.1276 8.78855ZM8.56594 2.5265C8.56649 3.12462 8.08761 3.60994 7.49632 3.6105C6.90503 3.61106 6.42526 3.12663 6.42471 2.52851C6.42416 1.93039 6.90304 1.44507 7.49433 1.44451C8.08562 1.44396 8.5654 1.92838 8.56594 2.5265ZM14.7765 3.60366C15.3678 3.6031 15.8467 3.11778 15.8462 2.51966C15.8456 1.92154 15.3658 1.43712 14.7745 1.43767C14.1833 1.43823 13.7044 1.92355 13.7049 2.52167C13.7055 3.11979 14.1852 3.60422 14.7765 3.60366ZM23.1264 2.51282C23.1269 3.11094 22.648 3.59626 22.0567 3.59682C21.4655 3.59737 20.9857 3.11295 20.9851 2.51483C20.9846 1.91671 21.4635 1.43139 22.0547 1.43083C22.646 1.43027 23.1258 1.9147 23.1264 2.51282Z" fill="#440005"/>
</svg>
