<svg width="20" height="20" viewBox="0 0 20 20" fill="none" xmlns="http://www.w3.org/2000/svg">
<path fill-rule="evenodd" clip-rule="evenodd" d="M10 20C15.5228 20 20 15.5228 20 10C20 4.47715 15.5228 0 10 0C4.47715 0 0 4.47715 0 10C0 15.5228 4.47715 20 10 20ZM8.92969 12.3047C8.96094 12.4714 9.0026 12.6224 9.05469 12.7578H11.1094C11.0521 12.6693 11.0052 12.5599 10.9688 12.4297C10.9375 12.2995 10.9219 12.1719 10.9219 12.0469C10.9219 11.8646 10.9453 11.7031 10.9922 11.5625C11.0391 11.4167 11.1068 11.2812 11.1953 11.1562C11.2891 11.026 11.4036 10.8958 11.5391 10.7656C11.6797 10.6354 11.8411 10.4948 12.0234 10.3438C12.2943 10.1198 12.5339 9.90365 12.7422 9.69531C12.9505 9.48177 13.125 9.26042 13.2656 9.03125C13.4062 8.80208 13.513 8.5599 13.5859 8.30469C13.6589 8.04427 13.6953 7.75521 13.6953 7.4375C13.6953 6.9375 13.6068 6.51042 13.4297 6.15625C13.2578 5.79688 13.0156 5.5026 12.7031 5.27344C12.3958 5.04427 12.0339 4.8776 11.6172 4.77344C11.2005 4.66406 10.75 4.60938 10.2656 4.60938C9.76042 4.60938 9.27083 4.66927 8.79688 4.78906C8.32292 4.90885 7.88542 5.08854 7.48438 5.32812V7.67969C7.875 7.33594 8.28906 7.08073 8.72656 6.91406C9.16406 6.74219 9.58594 6.65625 9.99219 6.65625C10.1797 6.65625 10.349 6.6849 10.5 6.74219C10.6562 6.79948 10.7865 6.8776 10.8906 6.97656C11 7.07552 11.0833 7.19531 11.1406 7.33594C11.1979 7.47135 11.2266 7.61979 11.2266 7.78125C11.2266 7.96875 11.2005 8.14062 11.1484 8.29688C11.0964 8.44792 11.0182 8.59635 10.9141 8.74219C10.8099 8.88281 10.6823 9.02604 10.5312 9.17188C10.3854 9.3125 10.2135 9.46615 10.0156 9.63281C9.82812 9.78906 9.66406 9.94792 9.52344 10.1094C9.38281 10.2656 9.26562 10.4323 9.17188 10.6094C9.07812 10.7812 9.00781 10.9661 8.96094 11.1641C8.91406 11.362 8.89062 11.5807 8.89062 11.8203C8.89062 11.9714 8.90365 12.1328 8.92969 12.3047ZM9.15625 15.8047C9.43229 16.0547 9.77865 16.1797 10.1953 16.1797C10.612 16.1797 10.9557 16.0573 11.2266 15.8125C11.4922 15.5677 11.625 15.2578 11.625 14.8828C11.625 14.513 11.4896 14.2083 11.2188 13.9688C10.9479 13.724 10.6068 13.6016 10.1953 13.6016C9.77865 13.6016 9.43229 13.724 9.15625 13.9688C8.88021 14.2135 8.74219 14.5182 8.74219 14.8828C8.74219 15.237 8.88021 15.5443 9.15625 15.8047Z" fill="#B92617"/>
</svg>
